<svg id="Capa_1" enable-background="new 0 0 512 512" height="512" viewBox="0 0 512 512" width="512" xmlns="http://www.w3.org/2000/svg"><g><circle cx="256" cy="256" fill="#60b9fe" r="256"/><path d="m49.152 256c0-133.093 101.571-242.45 231.424-254.82-8.089-.771-16.285-1.18-24.576-1.18-141.385 0-256 114.615-256 256s114.615 256 256 256c8.291 0 16.487-.409 24.576-1.18-129.853-12.37-231.424-121.727-231.424-254.82z" fill="#1ca8ff"/><path d="m265.539 31.449c-112.552 12.944-199.96 108.53-199.96 224.551s87.407 211.607 199.959 224.551c119.709-5 215.228-103.613 215.228-224.551s-95.518-219.551-215.227-224.551z" fill="#dbedff"/><path d="m66.775 256c0-118.154 91.169-215.009 206.996-224.069-5.864-.459-11.789-.698-17.771-.698-124.135.001-224.766 100.632-224.766 224.767s100.631 224.767 224.766 224.767c5.982 0 11.907-.239 17.771-.698-115.828-9.06-206.996-105.915-206.996-224.069z" fill="#b5dcff"/><g><path d="m306.652 318.83-113.645-113.555c-3.018-3.017-3.018-7.909 0-10.927 3.017-3.017 7.909-3.018 10.927 0l113.646 113.555c3.018 3.017 3.018 7.909 0 10.927-3.019 3.018-7.911 3.017-10.928 0z" fill="#60b9fe"/></g><g><path d="m326.902 277.638-93.249-93.159c-3.018-3.017-3.018-7.909 0-10.927s7.91-3.018 10.927 0l93.249 93.159c3.018 3.017 3.018 7.909 0 10.927-3.018 3.017-7.91 3.018-10.927 0z" fill="#ff7f87"/></g><g><path d="m265.46 339.079-93.249-93.159c-3.018-3.017-3.018-7.909 0-10.927s7.91-3.018 10.927 0l93.249 93.159c3.018 3.017 3.018 7.909 0 10.927-3.017 3.017-7.91 3.018-10.927 0z" fill="#ff7f87"/></g><g><path d="m418.441 203.218-109.822-109.731c-3.018-3.017-3.018-7.909 0-10.927 3.017-3.017 7.909-3.017 10.927 0l109.822 109.73c3.018 3.017 3.018 7.909 0 10.927-3.018 3.019-7.91 3.018-10.927.001z" fill="#60b9fe"/></g><g><path d="m192.43 429.229-109.822-109.73c-3.018-3.017-3.018-7.909 0-10.927 3.017-3.017 7.909-3.017 10.927 0l109.822 109.73c3.018 3.017 3.018 7.909 0 10.927-3.019 3.018-7.91 3.017-10.927 0z" fill="#60b9fe"/></g><g fill="#8479c2"><path d="m330.977 72.806c6.035-6.035 6.035-15.819 0-21.853-6.034-6.035-15.819-6.035-21.853 0-17.937 17.937-25.283 41.171-22.456 71.029 1.389 14.664 5.17 29.998 9.823 45.423l1.855 2.715 32.386 10.817 2.017-1.683c-14.232-42.573-25.934-82.287-1.772-106.448z"/><path d="m167.404 296.489c-15.424-4.652-30.758-8.433-45.423-9.822-29.858-2.827-53.091 4.519-71.028 22.456-6.035 6.035-6.034 15.819 0 21.853 6.035 6.034 15.818 6.035 21.854 0 24.163-24.163 63.876-12.46 106.447 1.771l1.072-3.961-10.903-30.314z"/><path d="m354.418 260.933c-1.389-14.664-5.17-29.999-9.823-45.423l-4.164-4.335-29.641-8.585-2.453 1.072c14.231 42.57 25.932 82.285 1.771 106.447-24.163 24.163-63.876 12.46-106.447-1.771l-2.09 3.622 7.34 27.301 6.598 5.336c15.424 4.652 30.758 8.433 45.423 9.822 29.858 2.827 53.092-4.519 71.029-22.456 17.938-17.938 25.284-41.172 22.457-71.03z"/></g><path d="m314.723 157.951c-2.086-.697-3.667-2.366-4.283-4.427-4.515-15.086-8.163-30.074-9.522-44.421-2.375-25.088 2.434-45.497 14.67-62.019-2.366.711-4.596 1.999-6.465 3.868-17.937 17.937-25.283 41.171-22.456 71.029 1.389 14.664 5.17 29.998 9.823 45.423l1.855 2.715 32.386 10.817 2.017-1.683c-1.931-5.777-3.811-11.499-5.566-17.139z" fill="#6e60b8"/><g fill="#6e60b8"><path d="m70.011 318.1c-6.034-6.035-6.035-15.819 0-21.853.842-.842 1.7-1.653 2.565-2.449-7.942 3.737-15.132 8.834-21.624 15.326-6.035 6.035-6.034 15.819 0 21.853 6.035 6.034 15.818 6.035 21.854 0 4.146-4.146 8.759-7.214 13.756-9.416-5.541 2.162-12.076 1.014-16.551-3.461z"/><path d="m91.864 318.1c-1.312 1.312-2.807 2.321-4.396 3.062 24.052-9.993 56.959-.056 91.785 11.586l1.072-3.961-5.95-16.543c-33.204-9.76-62.953-13.703-82.511 5.856z"/></g><g fill="#6e60b8"><path d="m315.048 304.239c3.21-1.892 6.238-4.198 9.048-7.008 20.964-20.964 14.926-53.639 3.666-89.726l-16.971-4.915-2.453 1.072c13.134 39.289 24.089 76.134 6.71 100.577z"/><path d="m274.92 341.541c-13.687-1.296-27.957-4.676-42.339-8.904-5.206-1.53-9.542-5.736-11.05-11.343l-2.101-7.816c-5.195-1.631-10.459-3.367-15.768-5.141l-2.09 3.622 7.34 27.301 6.598 5.336c15.424 4.652 30.758 8.433 45.423 9.822 29.858 2.827 53.092-4.519 71.029-22.456 1.472-1.472 2.865-2.982 4.194-4.526-16.383 11.815-36.542 16.443-61.236 14.105z"/></g><path d="m461.048 181.023c-6.034-6.035-15.819-6.035-21.853 0-39.58 39.58-120.882-17.073-188.128-23.441-5.912-.56-11.561-.714-16.964-.473-15.868 2.99-29.294 10.089-40.612 21.406-17.938 17.937-25.283 42.201-22.456 72.059 6.367 67.237 63.02 148.549 23.441 188.128-6.035 6.035-2.944 17.879 3.091 23.914.455.455.935.871 1.432 1.254 1.396-.716 2.708-1.652 3.877-2.822 17.938-17.937 25.283-41.171 22.456-71.029-6.367-67.238-63.02-148.549-23.441-188.128s120.89 17.074 188.128 23.442c29.858 2.827 53.091-4.519 71.029-22.456 6.034-6.035 6.034-15.819 0-21.854z" fill="#aea7d7"/><g><path d="m197.567 460.555c-6.035-6.035-6.035-15.819 0-21.853 39.579-39.579-17.074-120.891-23.441-188.128-2.827-29.858 4.519-53.091 22.456-71.029 12.931-12.931 28.616-20.356 47.55-22.435-26.549-1.124-47.571 6.404-64.094 22.927-17.937 17.937-25.283 41.171-22.456 71.029 6.367 67.237 63.02 148.549 23.441 188.128-6.034 6.035-6.034 15.819 0 21.853 5.33 5.33 13.582 5.944 19.595 1.858-1.086-.644-2.117-1.416-3.051-2.35z" fill="#8479c2"/></g></g></svg>